<?xml version="1.0" standalone="no"?>
<!DOCTYPE svg PUBLIC "-//W3C//DTD SVG 20010904//EN"
 "http://www.w3.org/TR/2001/REC-SVG-20010904/DTD/svg10.dtd">
<svg version="1.0" xmlns="http://www.w3.org/2000/svg"
 width="111.000000pt" height="111.000000pt" viewBox="0 0 111.000000 111.000000"
 preserveAspectRatio="xMidYMid meet">
<metadata>
Created by potrace 1.14, written by Peter Selinger 2001-2017
</metadata>
<g transform="translate(0.000000,111.000000) scale(0.100000,-0.100000)"
fill="#000000" stroke="none">
<path d="M0 555 l0 -555 555 0 555 0 0 555 0 555 -555 0 -555 0 0 -555z m739
262 l1 -64 -72 5 c-90 5 -155 -13 -188 -51 -70 -82 -67 -169 7 -240 38 -36 80
-47 175 -47 l78 0 -1 -60 -1 -60 -97 0 c-121 0 -174 17 -240 76 -129 116 -129
312 1 429 65 59 111 73 234 74 l101 1 2 -63z"/>
</g>
</svg>
